<mxfile host="app.diagrams.net" modified="2023-04-27T16:11:23.364Z" agent="Mozilla/5.0 (Windows NT 10.0; Win64; x64) AppleWebKit/537.36 (KHTML, like Gecko) Chrome/111.0.0.0 Safari/537.36 OPR/97.0.0.0 (Edition Yx 03)" etag="t9VvpGWsrhJsgwaELkAs" version="21.1.7" type="device">
  <diagram name="Страница 1" id="S4WMLHv-YJyAe8Am17xP">
    <mxGraphModel dx="1832" dy="1181" grid="1" gridSize="10" guides="1" tooltips="1" connect="1" arrows="1" fold="1" page="0" pageScale="1" pageWidth="827" pageHeight="1169" math="0" shadow="0">
      <root>
        <mxCell id="0" />
        <mxCell id="1" parent="0" />
        <mxCell id="5Ah5zrOt3sdigsWHNj73-1" value="&lt;font color=&quot;#c51111&quot; style=&quot;font-size: 14px;&quot;&gt;результат&lt;/font&gt;" style="text;strokeColor=none;align=center;fillColor=none;html=1;verticalAlign=middle;whiteSpace=wrap;rounded=0;fontSize=14;" vertex="1" parent="1">
          <mxGeometry x="210" y="-80" width="60" height="30" as="geometry" />
        </mxCell>
        <mxCell id="5Ah5zrOt3sdigsWHNj73-2" value="Н_ВЕДОМОСТИ.ТВ_ИД = Н_ТИПЫ_ВЕДОМОСТЕЙ.ИД" style="text;strokeColor=none;align=center;fillColor=none;html=1;verticalAlign=middle;whiteSpace=wrap;rounded=0;fontSize=14;" vertex="1" parent="1">
          <mxGeometry x="50" y="320" width="380" height="30" as="geometry" />
        </mxCell>
        <mxCell id="5Ah5zrOt3sdigsWHNj73-3" value="Н_ВЕДОМОСТИ" style="text;strokeColor=none;align=center;fillColor=none;html=1;verticalAlign=middle;whiteSpace=wrap;rounded=0;fontSize=14;" vertex="1" parent="1">
          <mxGeometry x="50" y="400" width="120" height="30" as="geometry" />
        </mxCell>
        <mxCell id="5Ah5zrOt3sdigsWHNj73-4" value="Н_ТИПЫ_ВЕДОМОСТЕЙ" style="text;strokeColor=none;align=center;fillColor=none;html=1;verticalAlign=middle;whiteSpace=wrap;rounded=0;fontSize=14;" vertex="1" parent="1">
          <mxGeometry x="270" y="400" width="170" height="30" as="geometry" />
        </mxCell>
        <mxCell id="5Ah5zrOt3sdigsWHNj73-5" value="Н_ТИПЫ_ВЕДОМОСТЕЙ.ИД &amp;gt; 2" style="text;strokeColor=none;align=center;fillColor=none;html=1;verticalAlign=middle;whiteSpace=wrap;rounded=0;fontSize=14;" vertex="1" parent="1">
          <mxGeometry x="130" y="240" width="220" height="30" as="geometry" />
        </mxCell>
        <mxCell id="5Ah5zrOt3sdigsWHNj73-6" value="Н_ВЕДОМОСТИ.ЧЛВК_ИД &amp;gt; 117219" style="text;strokeColor=none;align=center;fillColor=none;html=1;verticalAlign=middle;whiteSpace=wrap;rounded=0;fontSize=14;" vertex="1" parent="1">
          <mxGeometry x="115" y="160" width="240" height="30" as="geometry" />
        </mxCell>
        <mxCell id="5Ah5zrOt3sdigsWHNj73-7" value="Н_ВЕДОМОСТИ.ЧЛВК_ИД &amp;lt; 153285" style="text;strokeColor=none;align=center;fillColor=none;html=1;verticalAlign=middle;whiteSpace=wrap;rounded=0;fontSize=14;" vertex="1" parent="1">
          <mxGeometry x="110" y="80" width="250" height="30" as="geometry" />
        </mxCell>
        <mxCell id="5Ah5zrOt3sdigsWHNj73-10" value="" style="endArrow=classic;html=1;rounded=0;entryX=0.456;entryY=1;entryDx=0;entryDy=0;entryPerimeter=0;fontSize=14;" edge="1" parent="1" target="5Ah5zrOt3sdigsWHNj73-17">
          <mxGeometry width="50" height="50" relative="1" as="geometry">
            <mxPoint x="240" y="80" as="sourcePoint" />
            <mxPoint x="240" y="50" as="targetPoint" />
          </mxGeometry>
        </mxCell>
        <mxCell id="5Ah5zrOt3sdigsWHNj73-11" value="" style="endArrow=classic;html=1;rounded=0;entryX=0.517;entryY=1.01;entryDx=0;entryDy=0;entryPerimeter=0;exitX=0.519;exitY=0.016;exitDx=0;exitDy=0;exitPerimeter=0;fontSize=14;" edge="1" parent="1" source="5Ah5zrOt3sdigsWHNj73-6" target="5Ah5zrOt3sdigsWHNj73-7">
          <mxGeometry width="50" height="50" relative="1" as="geometry">
            <mxPoint x="230" y="160" as="sourcePoint" />
            <mxPoint x="280" y="110" as="targetPoint" />
          </mxGeometry>
        </mxCell>
        <mxCell id="5Ah5zrOt3sdigsWHNj73-12" value="" style="endArrow=classic;html=1;rounded=0;entryX=0.522;entryY=1.033;entryDx=0;entryDy=0;entryPerimeter=0;exitX=0.5;exitY=0;exitDx=0;exitDy=0;fontSize=14;" edge="1" parent="1" source="5Ah5zrOt3sdigsWHNj73-5" target="5Ah5zrOt3sdigsWHNj73-6">
          <mxGeometry width="50" height="50" relative="1" as="geometry">
            <mxPoint x="280" y="230" as="sourcePoint" />
            <mxPoint x="330" y="180" as="targetPoint" />
          </mxGeometry>
        </mxCell>
        <mxCell id="5Ah5zrOt3sdigsWHNj73-13" value="" style="endArrow=classic;html=1;rounded=0;entryX=0.5;entryY=1;entryDx=0;entryDy=0;exitX=0.5;exitY=0;exitDx=0;exitDy=0;fontSize=14;" edge="1" parent="1" source="5Ah5zrOt3sdigsWHNj73-2" target="5Ah5zrOt3sdigsWHNj73-5">
          <mxGeometry width="50" height="50" relative="1" as="geometry">
            <mxPoint x="220" y="340" as="sourcePoint" />
            <mxPoint x="270" y="290" as="targetPoint" />
          </mxGeometry>
        </mxCell>
        <mxCell id="5Ah5zrOt3sdigsWHNj73-14" value="" style="endArrow=classic;html=1;rounded=0;fontSize=14;" edge="1" parent="1">
          <mxGeometry width="50" height="50" relative="1" as="geometry">
            <mxPoint x="130" y="400" as="sourcePoint" />
            <mxPoint x="180" y="350" as="targetPoint" />
          </mxGeometry>
        </mxCell>
        <mxCell id="5Ah5zrOt3sdigsWHNj73-15" value="" style="endArrow=classic;html=1;rounded=0;exitX=0.437;exitY=0.004;exitDx=0;exitDy=0;exitPerimeter=0;entryX=0.596;entryY=1.013;entryDx=0;entryDy=0;entryPerimeter=0;fontSize=14;" edge="1" parent="1" source="5Ah5zrOt3sdigsWHNj73-4" target="5Ah5zrOt3sdigsWHNj73-2">
          <mxGeometry width="50" height="50" relative="1" as="geometry">
            <mxPoint x="180" y="370" as="sourcePoint" />
            <mxPoint x="230" y="320" as="targetPoint" />
          </mxGeometry>
        </mxCell>
        <mxCell id="5Ah5zrOt3sdigsWHNj73-17" value="Н_ТИПЫ_ВЕДОМОСТЕЙ.НАИМЕНОВАНИЕ, Н_ВЕДОМОСТИ.ДАТА" style="text;strokeColor=none;align=center;fillColor=none;html=1;verticalAlign=middle;whiteSpace=wrap;rounded=0;fontSize=14;" vertex="1" parent="1">
          <mxGeometry x="94" width="320" height="30" as="geometry" />
        </mxCell>
        <mxCell id="5Ah5zrOt3sdigsWHNj73-18" value="" style="endArrow=classic;html=1;rounded=0;entryX=0.5;entryY=1;entryDx=0;entryDy=0;exitX=0.459;exitY=0.046;exitDx=0;exitDy=0;exitPerimeter=0;fontSize=14;" edge="1" parent="1" source="5Ah5zrOt3sdigsWHNj73-17" target="5Ah5zrOt3sdigsWHNj73-1">
          <mxGeometry width="50" height="50" relative="1" as="geometry">
            <mxPoint x="300" y="10" as="sourcePoint" />
            <mxPoint x="350" y="-40" as="targetPoint" />
          </mxGeometry>
        </mxCell>
        <mxCell id="5Ah5zrOt3sdigsWHNj73-19" value="&lt;font color=&quot;#c51111&quot; style=&quot;font-size: 14px;&quot;&gt;результат&lt;/font&gt;" style="text;strokeColor=none;align=center;fillColor=none;html=1;verticalAlign=middle;whiteSpace=wrap;rounded=0;fontSize=14;" vertex="1" parent="1">
          <mxGeometry x="730" y="-80" width="60" height="30" as="geometry" />
        </mxCell>
        <mxCell id="5Ah5zrOt3sdigsWHNj73-20" value="Н_ТИПЫ_ВЕДОМОСТЕЙ.НАИМЕНОВАНИЕ, Н_ВЕДОМОСТИ.ДАТА" style="text;strokeColor=none;align=center;fillColor=none;html=1;verticalAlign=middle;whiteSpace=wrap;rounded=0;fontSize=14;" vertex="1" parent="1">
          <mxGeometry x="590" width="320" height="30" as="geometry" />
        </mxCell>
        <mxCell id="5Ah5zrOt3sdigsWHNj73-21" value="Н_ВЕДОМОСТИ.ТВ_ИД = Н_ТИПЫ_ВЕДОМОСТЕЙ.ИД" style="text;strokeColor=none;align=center;fillColor=none;html=1;verticalAlign=middle;whiteSpace=wrap;rounded=0;fontSize=14;" vertex="1" parent="1">
          <mxGeometry x="570" y="80" width="380" height="30" as="geometry" />
        </mxCell>
        <mxCell id="5Ah5zrOt3sdigsWHNj73-22" value="Н_ТИПЫ_ВЕДОМОСТЕЙ.ИД &amp;gt; 2" style="text;strokeColor=none;align=center;fillColor=none;html=1;verticalAlign=middle;whiteSpace=wrap;rounded=0;fontSize=14;" vertex="1" parent="1">
          <mxGeometry x="850" y="160" width="220" height="30" as="geometry" />
        </mxCell>
        <mxCell id="5Ah5zrOt3sdigsWHNj73-23" value="Н_ВЕДОМОСТИ.ЧЛВК_ИД &amp;lt; 153285" style="text;strokeColor=none;align=center;fillColor=none;html=1;verticalAlign=middle;whiteSpace=wrap;rounded=0;fontSize=14;" vertex="1" parent="1">
          <mxGeometry x="490" y="160" width="250" height="30" as="geometry" />
        </mxCell>
        <mxCell id="5Ah5zrOt3sdigsWHNj73-24" value="Н_ВЕДОМОСТИ.ЧЛВК_ИД &amp;gt; 117219" style="text;strokeColor=none;align=center;fillColor=none;html=1;verticalAlign=middle;whiteSpace=wrap;rounded=0;fontSize=14;" vertex="1" parent="1">
          <mxGeometry x="490" y="240" width="240" height="30" as="geometry" />
        </mxCell>
        <mxCell id="5Ah5zrOt3sdigsWHNj73-25" value="Н_ВЕДОМОСТИ" style="text;strokeColor=none;align=center;fillColor=none;html=1;verticalAlign=middle;whiteSpace=wrap;rounded=0;fontSize=14;" vertex="1" parent="1">
          <mxGeometry x="540" y="320" width="120" height="30" as="geometry" />
        </mxCell>
        <mxCell id="5Ah5zrOt3sdigsWHNj73-26" value="Н_ТИПЫ_ВЕДОМОСТЕЙ" style="text;strokeColor=none;align=center;fillColor=none;html=1;verticalAlign=middle;whiteSpace=wrap;rounded=0;fontSize=14;" vertex="1" parent="1">
          <mxGeometry x="875" y="320" width="170" height="30" as="geometry" />
        </mxCell>
        <mxCell id="5Ah5zrOt3sdigsWHNj73-27" value="" style="endArrow=classic;html=1;rounded=0;exitX=0.5;exitY=0;exitDx=0;exitDy=0;entryX=0.458;entryY=1.055;entryDx=0;entryDy=0;entryPerimeter=0;" edge="1" parent="1" source="5Ah5zrOt3sdigsWHNj73-25" target="5Ah5zrOt3sdigsWHNj73-24">
          <mxGeometry width="50" height="50" relative="1" as="geometry">
            <mxPoint x="650" y="250" as="sourcePoint" />
            <mxPoint x="700" y="200" as="targetPoint" />
          </mxGeometry>
        </mxCell>
        <mxCell id="5Ah5zrOt3sdigsWHNj73-28" value="" style="endArrow=classic;html=1;rounded=0;entryX=0.44;entryY=1.084;entryDx=0;entryDy=0;entryPerimeter=0;" edge="1" parent="1" target="5Ah5zrOt3sdigsWHNj73-23">
          <mxGeometry width="50" height="50" relative="1" as="geometry">
            <mxPoint x="600" y="240" as="sourcePoint" />
            <mxPoint x="700" y="150" as="targetPoint" />
          </mxGeometry>
        </mxCell>
        <mxCell id="5Ah5zrOt3sdigsWHNj73-29" value="" style="endArrow=classic;html=1;rounded=0;exitX=0.5;exitY=-0.062;exitDx=0;exitDy=0;exitPerimeter=0;entryX=0.5;entryY=1;entryDx=0;entryDy=0;" edge="1" parent="1" source="5Ah5zrOt3sdigsWHNj73-26" target="5Ah5zrOt3sdigsWHNj73-22">
          <mxGeometry width="50" height="50" relative="1" as="geometry">
            <mxPoint x="940" y="270" as="sourcePoint" />
            <mxPoint x="990" y="220" as="targetPoint" />
          </mxGeometry>
        </mxCell>
        <mxCell id="5Ah5zrOt3sdigsWHNj73-30" value="" style="endArrow=classic;html=1;rounded=0;" edge="1" parent="1">
          <mxGeometry width="50" height="50" relative="1" as="geometry">
            <mxPoint x="610" y="160" as="sourcePoint" />
            <mxPoint x="660" y="110" as="targetPoint" />
          </mxGeometry>
        </mxCell>
        <mxCell id="5Ah5zrOt3sdigsWHNj73-31" value="" style="endArrow=classic;html=1;rounded=0;" edge="1" parent="1" source="5Ah5zrOt3sdigsWHNj73-22">
          <mxGeometry width="50" height="50" relative="1" as="geometry">
            <mxPoint x="810" y="160" as="sourcePoint" />
            <mxPoint x="860" y="110" as="targetPoint" />
          </mxGeometry>
        </mxCell>
        <mxCell id="5Ah5zrOt3sdigsWHNj73-32" value="" style="endArrow=classic;html=1;rounded=0;entryX=0.531;entryY=1;entryDx=0;entryDy=0;entryPerimeter=0;exitX=0.5;exitY=0;exitDx=0;exitDy=0;" edge="1" parent="1" source="5Ah5zrOt3sdigsWHNj73-21" target="5Ah5zrOt3sdigsWHNj73-20">
          <mxGeometry width="50" height="50" relative="1" as="geometry">
            <mxPoint x="780" y="130" as="sourcePoint" />
            <mxPoint x="830" y="80" as="targetPoint" />
          </mxGeometry>
        </mxCell>
        <mxCell id="5Ah5zrOt3sdigsWHNj73-33" value="" style="endArrow=classic;html=1;rounded=0;entryX=0.5;entryY=1;entryDx=0;entryDy=0;exitX=0.536;exitY=0.025;exitDx=0;exitDy=0;exitPerimeter=0;" edge="1" parent="1" source="5Ah5zrOt3sdigsWHNj73-20" target="5Ah5zrOt3sdigsWHNj73-19">
          <mxGeometry width="50" height="50" relative="1" as="geometry">
            <mxPoint x="780" y="30" as="sourcePoint" />
            <mxPoint x="830" y="-20" as="targetPoint" />
          </mxGeometry>
        </mxCell>
        <mxCell id="5Ah5zrOt3sdigsWHNj73-34" value="&lt;font color=&quot;#c51111&quot; style=&quot;font-size: 14px;&quot;&gt;результат&lt;/font&gt;" style="text;strokeColor=none;align=center;fillColor=none;html=1;verticalAlign=middle;whiteSpace=wrap;rounded=0;fontSize=14;" vertex="1" parent="1">
          <mxGeometry x="130" y="560" width="60" height="30" as="geometry" />
        </mxCell>
        <mxCell id="5Ah5zrOt3sdigsWHNj73-35" value="Н_ЛЮДИ.ИД, Н_ВЕДОМОСТИ.ДАТА, Н_СЕССИЯ.УЧГОД" style="text;strokeColor=none;align=center;fillColor=none;html=1;verticalAlign=middle;whiteSpace=wrap;rounded=0;fontSize=14;" vertex="1" parent="1">
          <mxGeometry x="-20" y="640" width="360" height="30" as="geometry" />
        </mxCell>
        <mxCell id="5Ah5zrOt3sdigsWHNj73-36" value="Н_ВЕДОМОСТИ.ДАТА &amp;gt; 2006-06-18" style="text;strokeColor=none;align=center;fillColor=none;html=1;verticalAlign=middle;whiteSpace=wrap;rounded=0;fontSize=14;" vertex="1" parent="1">
          <mxGeometry x="30" y="720" width="260" height="30" as="geometry" />
        </mxCell>
        <mxCell id="5Ah5zrOt3sdigsWHNj73-37" value="Н_ЛЮДИ.ИМЯ &amp;gt; Иван" style="text;strokeColor=none;align=center;fillColor=none;html=1;verticalAlign=middle;whiteSpace=wrap;rounded=0;fontSize=14;" vertex="1" parent="1">
          <mxGeometry x="60" y="800" width="210" height="30" as="geometry" />
        </mxCell>
        <mxCell id="5Ah5zrOt3sdigsWHNj73-38" value="Н_СЕССИЯ.ЧЛВК_ИД = Н_ЛЮДИ.ИД" style="text;strokeColor=none;align=center;fillColor=none;html=1;verticalAlign=middle;whiteSpace=wrap;rounded=0;fontSize=14;" vertex="1" parent="1">
          <mxGeometry x="20" y="880" width="270" height="30" as="geometry" />
        </mxCell>
        <mxCell id="5Ah5zrOt3sdigsWHNj73-39" value="Н_СЕССИЯ" style="text;strokeColor=none;align=center;fillColor=none;html=1;verticalAlign=middle;whiteSpace=wrap;rounded=0;fontSize=14;" vertex="1" parent="1">
          <mxGeometry x="280" y="960" width="70" height="30" as="geometry" />
        </mxCell>
        <mxCell id="5Ah5zrOt3sdigsWHNj73-40" value="Н_ВЕДОМОСТИ.ЧЛВК_ИД = Н_ЛЮДИ.ИД" style="text;strokeColor=none;align=center;fillColor=none;html=1;verticalAlign=middle;whiteSpace=wrap;rounded=0;fontSize=14;" vertex="1" parent="1">
          <mxGeometry x="-110" y="960" width="290" height="30" as="geometry" />
        </mxCell>
        <mxCell id="5Ah5zrOt3sdigsWHNj73-42" value="Н_ЛЮДИ" style="text;strokeColor=none;align=center;fillColor=none;html=1;verticalAlign=middle;whiteSpace=wrap;rounded=0;fontSize=14;" vertex="1" parent="1">
          <mxGeometry x="-70" y="1050" width="60" height="30" as="geometry" />
        </mxCell>
        <mxCell id="5Ah5zrOt3sdigsWHNj73-43" value="Н_ВЕДОМОСТИ" style="text;strokeColor=none;align=center;fillColor=none;html=1;verticalAlign=middle;whiteSpace=wrap;rounded=0;fontSize=14;" vertex="1" parent="1">
          <mxGeometry x="60" y="1050" width="120" height="30" as="geometry" />
        </mxCell>
        <mxCell id="5Ah5zrOt3sdigsWHNj73-44" value="" style="endArrow=classic;html=1;rounded=0;exitX=0.5;exitY=0;exitDx=0;exitDy=0;entryX=0.5;entryY=1;entryDx=0;entryDy=0;" edge="1" parent="1" source="5Ah5zrOt3sdigsWHNj73-35" target="5Ah5zrOt3sdigsWHNj73-34">
          <mxGeometry width="50" height="50" relative="1" as="geometry">
            <mxPoint x="200" y="630" as="sourcePoint" />
            <mxPoint x="250" y="580" as="targetPoint" />
          </mxGeometry>
        </mxCell>
        <mxCell id="5Ah5zrOt3sdigsWHNj73-45" value="" style="endArrow=classic;html=1;rounded=0;exitX=0.5;exitY=0;exitDx=0;exitDy=0;entryX=0.5;entryY=1;entryDx=0;entryDy=0;" edge="1" parent="1" source="5Ah5zrOt3sdigsWHNj73-36" target="5Ah5zrOt3sdigsWHNj73-35">
          <mxGeometry width="50" height="50" relative="1" as="geometry">
            <mxPoint x="190" y="710" as="sourcePoint" />
            <mxPoint x="240" y="660" as="targetPoint" />
          </mxGeometry>
        </mxCell>
        <mxCell id="5Ah5zrOt3sdigsWHNj73-46" value="" style="endArrow=classic;html=1;rounded=0;entryX=0.5;entryY=1;entryDx=0;entryDy=0;" edge="1" parent="1" target="5Ah5zrOt3sdigsWHNj73-36">
          <mxGeometry width="50" height="50" relative="1" as="geometry">
            <mxPoint x="160" y="800" as="sourcePoint" />
            <mxPoint x="240" y="770" as="targetPoint" />
          </mxGeometry>
        </mxCell>
        <mxCell id="5Ah5zrOt3sdigsWHNj73-47" value="" style="endArrow=classic;html=1;rounded=0;exitX=0.517;exitY=0.024;exitDx=0;exitDy=0;exitPerimeter=0;entryX=0.476;entryY=1.074;entryDx=0;entryDy=0;entryPerimeter=0;" edge="1" parent="1" source="5Ah5zrOt3sdigsWHNj73-38" target="5Ah5zrOt3sdigsWHNj73-37">
          <mxGeometry width="50" height="50" relative="1" as="geometry">
            <mxPoint x="190" y="870" as="sourcePoint" />
            <mxPoint x="240" y="820" as="targetPoint" />
          </mxGeometry>
        </mxCell>
        <mxCell id="5Ah5zrOt3sdigsWHNj73-48" value="" style="endArrow=classic;html=1;rounded=0;" edge="1" parent="1">
          <mxGeometry width="50" height="50" relative="1" as="geometry">
            <mxPoint x="70" y="960" as="sourcePoint" />
            <mxPoint x="120" y="910" as="targetPoint" />
          </mxGeometry>
        </mxCell>
        <mxCell id="5Ah5zrOt3sdigsWHNj73-49" value="" style="endArrow=classic;html=1;rounded=0;exitX=0.25;exitY=0;exitDx=0;exitDy=0;entryX=0.652;entryY=1.045;entryDx=0;entryDy=0;entryPerimeter=0;" edge="1" parent="1" source="5Ah5zrOt3sdigsWHNj73-39" target="5Ah5zrOt3sdigsWHNj73-38">
          <mxGeometry width="50" height="50" relative="1" as="geometry">
            <mxPoint x="160" y="950" as="sourcePoint" />
            <mxPoint x="210" y="900" as="targetPoint" />
          </mxGeometry>
        </mxCell>
        <mxCell id="5Ah5zrOt3sdigsWHNj73-50" value="" style="endArrow=classic;html=1;rounded=0;" edge="1" parent="1">
          <mxGeometry width="50" height="50" relative="1" as="geometry">
            <mxPoint x="-40" y="1040" as="sourcePoint" />
            <mxPoint x="10" y="990" as="targetPoint" />
          </mxGeometry>
        </mxCell>
        <mxCell id="5Ah5zrOt3sdigsWHNj73-51" value="" style="endArrow=classic;html=1;rounded=0;entryX=0.569;entryY=1.067;entryDx=0;entryDy=0;entryPerimeter=0;" edge="1" parent="1" target="5Ah5zrOt3sdigsWHNj73-40">
          <mxGeometry width="50" height="50" relative="1" as="geometry">
            <mxPoint x="100" y="1040" as="sourcePoint" />
            <mxPoint x="150" y="970" as="targetPoint" />
          </mxGeometry>
        </mxCell>
        <mxCell id="5Ah5zrOt3sdigsWHNj73-52" value="&lt;font color=&quot;#c51111&quot; style=&quot;font-size: 14px;&quot;&gt;результат&lt;/font&gt;" style="text;strokeColor=none;align=center;fillColor=none;html=1;verticalAlign=middle;whiteSpace=wrap;rounded=0;fontSize=14;" vertex="1" parent="1">
          <mxGeometry x="840" y="560" width="60" height="30" as="geometry" />
        </mxCell>
        <mxCell id="5Ah5zrOt3sdigsWHNj73-54" value="Н_ЛЮДИ.ИД, Н_ВЕДОМОСТИ.ДАТА, Н_СЕССИЯ.УЧГОД" style="text;strokeColor=none;align=center;fillColor=none;html=1;verticalAlign=middle;whiteSpace=wrap;rounded=0;fontSize=14;" vertex="1" parent="1">
          <mxGeometry x="690" y="640" width="360" height="30" as="geometry" />
        </mxCell>
        <mxCell id="5Ah5zrOt3sdigsWHNj73-55" value="Н_СЕССИЯ.ЧЛВК_ИД = Н_ЛЮДИ.ИД" style="text;strokeColor=none;align=center;fillColor=none;html=1;verticalAlign=middle;whiteSpace=wrap;rounded=0;fontSize=14;" vertex="1" parent="1">
          <mxGeometry x="730" y="720" width="270" height="30" as="geometry" />
        </mxCell>
        <mxCell id="5Ah5zrOt3sdigsWHNj73-56" value="Н_СЕССИЯ" style="text;strokeColor=none;align=center;fillColor=none;html=1;verticalAlign=middle;whiteSpace=wrap;rounded=0;fontSize=14;" vertex="1" parent="1">
          <mxGeometry x="960" y="800" width="70" height="30" as="geometry" />
        </mxCell>
        <mxCell id="5Ah5zrOt3sdigsWHNj73-57" value="Н_ВЕДОМОСТИ.ЧЛВК_ИД = Н_ЛЮДИ.ИД" style="text;strokeColor=none;align=center;fillColor=none;html=1;verticalAlign=middle;whiteSpace=wrap;rounded=0;fontSize=14;" vertex="1" parent="1">
          <mxGeometry x="610" y="800" width="290" height="30" as="geometry" />
        </mxCell>
        <mxCell id="5Ah5zrOt3sdigsWHNj73-58" value="Н_ВЕДОМОСТИ.ДАТА &amp;gt; 2006-06-18" style="text;strokeColor=none;align=center;fillColor=none;html=1;verticalAlign=middle;whiteSpace=wrap;rounded=0;fontSize=14;" vertex="1" parent="1">
          <mxGeometry x="450" y="880" width="260" height="30" as="geometry" />
        </mxCell>
        <mxCell id="5Ah5zrOt3sdigsWHNj73-60" value="Н_ЛЮДИ.ИМЯ &amp;gt; Иван" style="text;strokeColor=none;align=center;fillColor=none;html=1;verticalAlign=middle;whiteSpace=wrap;rounded=0;fontSize=14;" vertex="1" parent="1">
          <mxGeometry x="780" y="880" width="210" height="30" as="geometry" />
        </mxCell>
        <mxCell id="5Ah5zrOt3sdigsWHNj73-61" value="Н_ЛЮДИ" style="text;strokeColor=none;align=center;fillColor=none;html=1;verticalAlign=middle;whiteSpace=wrap;rounded=0;fontSize=14;" vertex="1" parent="1">
          <mxGeometry x="850" y="960" width="60" height="30" as="geometry" />
        </mxCell>
        <mxCell id="5Ah5zrOt3sdigsWHNj73-62" value="Н_ВЕДОМОСТИ" style="text;strokeColor=none;align=center;fillColor=none;html=1;verticalAlign=middle;whiteSpace=wrap;rounded=0;fontSize=14;" vertex="1" parent="1">
          <mxGeometry x="530" y="960" width="120" height="30" as="geometry" />
        </mxCell>
        <mxCell id="5Ah5zrOt3sdigsWHNj73-63" value="" style="endArrow=classic;html=1;rounded=0;exitX=0.5;exitY=0;exitDx=0;exitDy=0;entryX=0.5;entryY=1;entryDx=0;entryDy=0;" edge="1" parent="1" source="5Ah5zrOt3sdigsWHNj73-54" target="5Ah5zrOt3sdigsWHNj73-52">
          <mxGeometry width="50" height="50" relative="1" as="geometry">
            <mxPoint x="880" y="720" as="sourcePoint" />
            <mxPoint x="930" y="670" as="targetPoint" />
          </mxGeometry>
        </mxCell>
        <mxCell id="5Ah5zrOt3sdigsWHNj73-64" value="" style="endArrow=classic;html=1;rounded=0;entryX=0.5;entryY=1;entryDx=0;entryDy=0;" edge="1" parent="1" target="5Ah5zrOt3sdigsWHNj73-54">
          <mxGeometry width="50" height="50" relative="1" as="geometry">
            <mxPoint x="870" y="720" as="sourcePoint" />
            <mxPoint x="930" y="650" as="targetPoint" />
          </mxGeometry>
        </mxCell>
        <mxCell id="5Ah5zrOt3sdigsWHNj73-65" value="" style="endArrow=classic;html=1;rounded=0;" edge="1" parent="1">
          <mxGeometry width="50" height="50" relative="1" as="geometry">
            <mxPoint x="800" y="800" as="sourcePoint" />
            <mxPoint x="850" y="750" as="targetPoint" />
          </mxGeometry>
        </mxCell>
        <mxCell id="5Ah5zrOt3sdigsWHNj73-66" value="" style="endArrow=classic;html=1;rounded=0;exitX=0.314;exitY=-0.01;exitDx=0;exitDy=0;exitPerimeter=0;entryX=0.66;entryY=0.977;entryDx=0;entryDy=0;entryPerimeter=0;" edge="1" parent="1" source="5Ah5zrOt3sdigsWHNj73-56" target="5Ah5zrOt3sdigsWHNj73-55">
          <mxGeometry width="50" height="50" relative="1" as="geometry">
            <mxPoint x="860" y="800" as="sourcePoint" />
            <mxPoint x="910" y="750" as="targetPoint" />
          </mxGeometry>
        </mxCell>
        <mxCell id="5Ah5zrOt3sdigsWHNj73-67" value="" style="endArrow=classic;html=1;rounded=0;" edge="1" parent="1">
          <mxGeometry width="50" height="50" relative="1" as="geometry">
            <mxPoint x="640" y="880" as="sourcePoint" />
            <mxPoint x="690" y="830" as="targetPoint" />
          </mxGeometry>
        </mxCell>
        <mxCell id="5Ah5zrOt3sdigsWHNj73-68" value="" style="endArrow=classic;html=1;rounded=0;" edge="1" parent="1" source="5Ah5zrOt3sdigsWHNj73-60">
          <mxGeometry width="50" height="50" relative="1" as="geometry">
            <mxPoint x="740" y="880" as="sourcePoint" />
            <mxPoint x="790" y="830" as="targetPoint" />
          </mxGeometry>
        </mxCell>
        <mxCell id="5Ah5zrOt3sdigsWHNj73-69" value="" style="endArrow=classic;html=1;rounded=0;exitX=0.5;exitY=0;exitDx=0;exitDy=0;entryX=0.54;entryY=1.016;entryDx=0;entryDy=0;entryPerimeter=0;" edge="1" parent="1" source="5Ah5zrOt3sdigsWHNj73-62" target="5Ah5zrOt3sdigsWHNj73-58">
          <mxGeometry width="50" height="50" relative="1" as="geometry">
            <mxPoint x="550" y="970" as="sourcePoint" />
            <mxPoint x="600" y="920" as="targetPoint" />
          </mxGeometry>
        </mxCell>
        <mxCell id="5Ah5zrOt3sdigsWHNj73-70" value="" style="endArrow=classic;html=1;rounded=0;exitX=0.5;exitY=0;exitDx=0;exitDy=0;entryX=0.473;entryY=1.033;entryDx=0;entryDy=0;entryPerimeter=0;" edge="1" parent="1" source="5Ah5zrOt3sdigsWHNj73-61" target="5Ah5zrOt3sdigsWHNj73-60">
          <mxGeometry width="50" height="50" relative="1" as="geometry">
            <mxPoint x="900" y="930" as="sourcePoint" />
            <mxPoint x="950" y="880" as="targetPoint" />
          </mxGeometry>
        </mxCell>
        <mxCell id="5Ah5zrOt3sdigsWHNj73-71" value="" style="shape=collate;whiteSpace=wrap;html=1;direction=west;rotation=90;" vertex="1" parent="1">
          <mxGeometry x="22.5" y="317.5" width="20" height="25" as="geometry" />
        </mxCell>
        <mxCell id="5Ah5zrOt3sdigsWHNj73-72" value="" style="shape=collate;whiteSpace=wrap;html=1;direction=west;rotation=90;" vertex="1" parent="1">
          <mxGeometry x="550" y="80" width="20" height="25" as="geometry" />
        </mxCell>
        <mxCell id="5Ah5zrOt3sdigsWHNj73-73" value="" style="shape=collate;whiteSpace=wrap;html=1;direction=west;rotation=90;" vertex="1" parent="1">
          <mxGeometry y="880" width="20" height="25" as="geometry" />
        </mxCell>
        <mxCell id="5Ah5zrOt3sdigsWHNj73-74" value="" style="shape=collate;whiteSpace=wrap;html=1;direction=west;rotation=90;" vertex="1" parent="1">
          <mxGeometry x="-130" y="960" width="20" height="25" as="geometry" />
        </mxCell>
        <mxCell id="5Ah5zrOt3sdigsWHNj73-75" value="" style="shape=collate;whiteSpace=wrap;html=1;direction=west;rotation=90;" vertex="1" parent="1">
          <mxGeometry x="590" y="800" width="20" height="25" as="geometry" />
        </mxCell>
        <mxCell id="5Ah5zrOt3sdigsWHNj73-76" value="" style="shape=collate;whiteSpace=wrap;html=1;direction=west;rotation=90;" vertex="1" parent="1">
          <mxGeometry x="710" y="720" width="20" height="25" as="geometry" />
        </mxCell>
        <mxCell id="5Ah5zrOt3sdigsWHNj73-78" value="&lt;font style=&quot;font-size: 32px;&quot;&gt;σ&lt;/font&gt;" style="text;strokeColor=none;align=center;fillColor=none;html=1;verticalAlign=middle;whiteSpace=wrap;rounded=0;" vertex="1" parent="1">
          <mxGeometry x="10" y="722.5" width="40" height="20" as="geometry" />
        </mxCell>
        <mxCell id="5Ah5zrOt3sdigsWHNj73-80" value="&lt;font style=&quot;font-size: 32px;&quot;&gt;σ&lt;/font&gt;" style="text;strokeColor=none;align=center;fillColor=none;html=1;verticalAlign=middle;whiteSpace=wrap;rounded=0;" vertex="1" parent="1">
          <mxGeometry x="60" y="802.5" width="40" height="20" as="geometry" />
        </mxCell>
        <mxCell id="5Ah5zrOt3sdigsWHNj73-81" value="&lt;font style=&quot;font-size: 32px;&quot;&gt;σ&lt;/font&gt;" style="text;strokeColor=none;align=center;fillColor=none;html=1;verticalAlign=middle;whiteSpace=wrap;rounded=0;" vertex="1" parent="1">
          <mxGeometry x="780" y="882.5" width="40" height="20" as="geometry" />
        </mxCell>
        <mxCell id="5Ah5zrOt3sdigsWHNj73-83" value="&lt;font style=&quot;font-size: 32px;&quot;&gt;σ&lt;/font&gt;" style="text;strokeColor=none;align=center;fillColor=none;html=1;verticalAlign=middle;whiteSpace=wrap;rounded=0;" vertex="1" parent="1">
          <mxGeometry x="430" y="882.5" width="40" height="20" as="geometry" />
        </mxCell>
        <mxCell id="5Ah5zrOt3sdigsWHNj73-84" value="&lt;font style=&quot;font-size: 32px;&quot;&gt;σ&lt;/font&gt;" style="text;strokeColor=none;align=center;fillColor=none;html=1;verticalAlign=middle;whiteSpace=wrap;rounded=0;" vertex="1" parent="1">
          <mxGeometry x="820" y="165" width="40" height="20" as="geometry" />
        </mxCell>
        <mxCell id="5Ah5zrOt3sdigsWHNj73-85" value="&lt;font style=&quot;font-size: 32px;&quot;&gt;σ&lt;/font&gt;" style="text;strokeColor=none;align=center;fillColor=none;html=1;verticalAlign=middle;whiteSpace=wrap;rounded=0;" vertex="1" parent="1">
          <mxGeometry x="460" y="160" width="40" height="20" as="geometry" />
        </mxCell>
        <mxCell id="5Ah5zrOt3sdigsWHNj73-86" value="&lt;font style=&quot;font-size: 32px;&quot;&gt;σ&lt;/font&gt;" style="text;strokeColor=none;align=center;fillColor=none;html=1;verticalAlign=middle;whiteSpace=wrap;rounded=0;" vertex="1" parent="1">
          <mxGeometry x="460" y="245" width="40" height="20" as="geometry" />
        </mxCell>
        <mxCell id="5Ah5zrOt3sdigsWHNj73-87" value="&lt;font style=&quot;font-size: 32px;&quot;&gt;σ&lt;/font&gt;" style="text;strokeColor=none;align=center;fillColor=none;html=1;verticalAlign=middle;whiteSpace=wrap;rounded=0;" vertex="1" parent="1">
          <mxGeometry x="94" y="245" width="40" height="20" as="geometry" />
        </mxCell>
        <mxCell id="5Ah5zrOt3sdigsWHNj73-88" value="&lt;font style=&quot;font-size: 32px;&quot;&gt;σ&lt;/font&gt;" style="text;strokeColor=none;align=center;fillColor=none;html=1;verticalAlign=middle;whiteSpace=wrap;rounded=0;" vertex="1" parent="1">
          <mxGeometry x="80" y="160" width="40" height="20" as="geometry" />
        </mxCell>
        <mxCell id="5Ah5zrOt3sdigsWHNj73-89" value="&lt;font style=&quot;font-size: 32px;&quot;&gt;σ&lt;/font&gt;" style="text;strokeColor=none;align=center;fillColor=none;html=1;verticalAlign=middle;whiteSpace=wrap;rounded=0;" vertex="1" parent="1">
          <mxGeometry x="80" y="83.75" width="40" height="17.5" as="geometry" />
        </mxCell>
      </root>
    </mxGraphModel>
  </diagram>
</mxfile>
